<svg width="52" height="50" viewBox="0 0 52 50" fill="none" xmlns="http://www.w3.org/2000/svg">
<path fill-rule="evenodd" clip-rule="evenodd" d="M36.2791 3.65854V7.78049L41.1163 11.6829V3.65854H36.2791ZM44.7442 14.6098V3.04878C44.7442 1.36585 43.3898 0 41.7209 0H35.6744C34.0056 0 32.6512 1.36585 32.6512 3.04878V4.85366L31.6668 4.05854C30.0584 2.76064 28.0599 2.05352 26 2.05352C23.9401 2.05352 21.9415 2.76064 20.3332 4.05854L0.682046 19.9122C0.306154 20.2153 0.0650396 20.6565 0.0117444 21.1388C-0.0415508 21.6212 0.0973393 22.1051 0.39786 22.4841C0.698382 22.8632 1.13592 23.1064 1.61421 23.1601C2.09251 23.2139 2.57239 23.0738 2.94828 22.7707L4.83721 21.2439V46.3415H1.81395C1.33286 46.3415 0.871477 46.5342 0.531295 46.8772C0.191112 47.2203 0 47.6856 0 48.1707C0 48.6559 0.191112 49.1212 0.531295 49.4642C0.871477 49.8073 1.33286 50 1.81395 50H50.186C50.6671 50 51.1285 49.8073 51.4687 49.4642C51.8089 49.1212 52 48.6559 52 48.1707C52 47.6856 51.8089 47.2203 51.4687 46.8772C51.1285 46.5342 50.6671 46.3415 50.186 46.3415H47.1628V21.2439L49.0541 22.7707C49.4307 23.0666 49.9077 23.2009 50.3817 23.1445C50.8558 23.0881 51.2887 22.8455 51.5865 22.4694C51.8844 22.0933 52.0233 21.6139 51.973 21.1352C51.9227 20.6565 51.6874 20.2171 51.318 19.9122L44.7442 14.6098ZM43.5349 18.3171L29.4006 6.91463C28.4355 6.13565 27.2362 5.71123 26 5.71123C24.7638 5.71123 23.5645 6.13565 22.5994 6.91463L8.46512 18.3171V46.3415H16.9302V35.8537C16.9302 34.2341 16.9302 32.8366 17.0802 31.7171C17.2398 30.5171 17.6002 29.3683 18.5241 28.4366C19.448 27.5049 20.5896 27.1415 21.7771 26.9805C22.8873 26.8293 24.2731 26.8293 25.8815 26.8293H26.1185C27.7269 26.8293 29.1127 26.8293 30.2229 26.9805C31.4128 27.1415 32.552 27.5049 33.4759 28.4366C34.3998 29.3683 34.7602 30.5171 34.9198 31.7171C35.0698 32.8366 35.0698 34.2341 35.0698 35.8561V46.3415H43.5349V18.3171ZM31.4419 46.3415V35.9756C31.4419 34.2 31.437 33.0488 31.3258 32.2049C31.2193 31.4122 31.05 31.1634 30.9098 31.0244C30.7695 30.8854 30.5252 30.7122 29.7392 30.6049C28.8999 30.4927 27.7607 30.4878 26 30.4878C24.2393 30.4878 23.0977 30.4927 22.2608 30.6049C21.4748 30.7122 21.2281 30.8854 21.0902 31.0244C20.9524 31.1634 20.7807 31.4122 20.6742 32.2049C20.563 33.0512 20.5581 34.2 20.5581 35.9756V46.3415H31.4419ZM26 14.6341C25.603 14.6341 25.2098 14.713 24.843 14.8662C24.4763 15.0194 24.143 15.244 23.8622 15.5271C23.5815 15.8102 23.3588 16.1463 23.2069 16.5162C23.0549 16.8861 22.9767 17.2826 22.9767 17.6829C22.9767 18.0833 23.0549 18.4798 23.2069 18.8496C23.3588 19.2195 23.5815 19.5556 23.8622 19.8387C24.143 20.1218 24.4763 20.3464 24.843 20.4996C25.2098 20.6528 25.603 20.7317 26 20.7317C26.8018 20.7317 27.5708 20.4105 28.1378 19.8387C28.7047 19.267 29.0233 18.4915 29.0233 17.6829C29.0233 16.8743 28.7047 16.0989 28.1378 15.5271C27.5708 14.9554 26.8018 14.6341 26 14.6341ZM19.3488 17.6829C19.3488 15.904 20.0496 14.198 21.2969 12.9401C22.5443 11.6823 24.236 10.9756 26 10.9756C27.764 10.9756 29.4557 11.6823 30.7031 12.9401C31.9504 14.198 32.6512 15.904 32.6512 17.6829C32.6512 19.4618 31.9504 21.1679 30.7031 22.4257C29.4557 23.6836 27.764 24.3902 26 24.3902C24.236 24.3902 22.5443 23.6836 21.2969 22.4257C20.0496 21.1679 19.3488 19.4618 19.3488 17.6829Z" fill="black"/>
</svg>
